<svg width="736" height="552" viewBox="0 0 736 552" fill="none" xmlns="http://www.w3.org/2000/svg">
<rect width="736" height="552" fill="white"/>
<path d="M130.255 183.109C130.799 188.552 130.536 198.43 127.806 220.578C125.943 235.694 121.812 258.507 119.849 271.915C117.887 285.322 117.887 288.587 117.887 289.045C117.887 289.503 117.887 287.054 117.887 284.531" stroke="black" stroke-width="2" stroke-linecap="round"/>
<path d="M130.254 187.234C135.152 196.486 140.124 211.048 143.971 227.386C145.64 236.923 146.737 242.455 148.654 247.118C149.755 249.332 151.115 251.237 152.517 253.199" stroke="black" stroke-width="2" stroke-linecap="round"/>
<path d="M196.22 201.25C192.954 206.148 183.381 219.283 169.248 238.9C158.653 254.979 152.806 263.356 152.105 263.917C152.765 263.389 155.486 261.212 158.29 258.969" stroke="black" stroke-width="2" stroke-linecap="round"/>
<path d="M210.238 188.059C207.517 203.297 203.122 223.935 197.634 248.21C195.14 259.697 193.235 269.492 192.798 274.131C192.361 278.769 193.45 277.952 197.045 274.638" stroke="black" stroke-width="2" stroke-linecap="round"/>
<path d="M244.87 212.793C242.149 224.766 239.115 241.273 235.961 259.389C233.731 272.193 231.677 280.374 232.221 284.097C232.766 284.555 233.854 282.106 235.095 280.3C236.336 278.494 237.696 277.406 239.098 276.284" stroke="black" stroke-width="2" stroke-linecap="round"/>
<path d="M293.52 200.426C292.976 215.119 292.695 224.322 290.791 235.367C282.754 281.971 278.406 286.716 278.266 287.825C278.398 287.574 278.942 285.669 279.494 284.008C280.047 282.346 280.591 280.986 281.152 279.584" stroke="black" stroke-width="2" stroke-linecap="round"/>
<path d="M288.573 207.021C306.928 201.266 328.878 197.951 341.172 200.14C343.55 200.564 345.699 200.969 347.773 202.606C357 209.888 357.276 220.989 357.701 230.897C358.244 243.569 344.973 258.095 335.194 265.405C328.416 270.471 318.604 277.06 308.668 282.729C302.162 286.44 295.219 292.743 286.405 296.886C282.834 298.531 280.064 300.189 277.598 301.97C276.221 302.935 274.589 304.023 272.082 306.793" stroke="black" stroke-width="2" stroke-linecap="round"/>
<path d="M132.819 183.348C132.087 188.54 131.356 193.733 129.151 203.978C126.945 214.222 123.289 229.362 120.82 241C118.351 252.639 117.181 260.318 116.578 264.676C115.866 269.825 115.829 271.619 115.461 277.667C115.151 282.76 114.947 291.98 114.869 296.544C114.792 301.108 114.938 300.743 116 298.945C117.063 297.148 119.038 293.93 121.072 290.614" stroke="black" stroke-width="2" stroke-linecap="round"/>
<path d="M129.937 184.012C129.572 189.863 129.206 195.714 128.542 201.214C127.878 206.715 126.928 211.688 126.035 218.785C125.143 225.881 124.339 234.95 122.901 245.217C121.462 255.484 119.414 266.674 118.067 273.206C116.391 281.331 115.239 284.612 114.869 287.015C114.791 287.664 114.938 287.152 115.123 286.632C115.308 286.112 115.527 285.6 115.753 285.073" stroke="black" stroke-width="2" stroke-linecap="round"/>
<path d="M135.7 190.219C134.969 194.899 134.237 199.58 130.204 218.411C126.17 237.241 118.857 270.079 115.82 285.753C112.784 301.426 114.247 298.939 115.22 297.11C116.193 295.28 116.632 294.183 117.084 293.053" stroke="black" stroke-width="2" stroke-linecap="round"/>
<path d="M129.496 179.801C129.569 180.166 129.642 180.532 132.496 188.766C135.349 196.999 140.981 213.089 144.906 226.936C148.831 240.783 150.879 251.9 152.043 257.956C153.427 264.67 153.873 265.787 154.388 266.598C154.684 266.97 155.049 267.263 155.426 268.008" stroke="black" stroke-width="2" stroke-linecap="round"/>
<path d="M215.485 187.336C215.412 187.409 215.339 187.482 211.901 192.018C208.462 196.553 201.66 205.549 194.5 213.804C187.339 222.058 180.025 229.298 174.978 234.016C169.93 238.733 167.371 240.708 164.48 243.297C161.588 245.887 158.444 249.032 155.873 252.078C151.098 257.735 149.149 261.72 148.852 262.61C148.847 262.695 149.14 262.037 150.058 260.674C150.977 259.311 152.513 257.263 154.095 255.153" stroke="black" stroke-width="2" stroke-linecap="round"/>
<path d="M213.713 188.887C212.397 190.423 211.08 191.958 199.651 204.488C188.222 217.018 166.72 240.494 155.35 253.064C143.981 265.633 143.396 266.584 142.875 267.586C142.354 268.588 141.915 269.612 141.653 269.92C141.39 270.228 141.317 269.789 141.572 269.124C141.827 268.459 142.412 267.581 143.262 266.581C144.112 265.58 145.209 264.483 146.339 263.353" stroke="black" stroke-width="2" stroke-linecap="round"/>
<path d="M216.153 188.887C215.86 190.276 215.568 191.666 211.029 205.217C206.49 218.768 197.714 244.439 192.169 263.003C186.623 281.566 184.576 292.244 183.009 299.207C179.363 312.476 179.07 314.096 178.773 315.206C178.769 315.439 179.062 315 179.363 314.548" stroke="black" stroke-width="2" stroke-linecap="round"/>
<path d="M210.076 197.031C209.475 199.314 208.874 201.597 208.024 203.915C207.174 206.233 206.092 208.516 200.368 226.936C194.644 245.355 184.31 279.842 178.986 298.209C173.543 319.977 173.299 323.01 173.96 323.868C174.62 323.644 175.942 322.082 177.304 320.472" stroke="black" stroke-width="2" stroke-linecap="round"/>
<path d="M204.981 206.5C202.939 213.349 200.896 220.199 196.599 233.04C192.302 245.881 185.813 264.506 180.248 278.788C174.682 293.069 170.236 302.442 167.465 309.493C160.998 325.95 162.622 329.206 162.68 329.697C162.858 329.468 163.339 328.266 164.187 326.626C165.036 324.985 166.238 322.942 167.476 320.838" stroke="black" stroke-width="2" stroke-linecap="round"/>
<path d="M249.04 209.777C248.319 211.82 247.598 213.863 246.326 222.005C245.053 230.147 243.251 244.326 240.7 257.218C238.149 270.111 234.905 281.286 232.452 291.909C230 302.533 228.438 312.266 227.453 317.941C226.234 324.961 225.375 327.141 224.889 327.755C224.763 327.527 224.884 326.205 225.186 324.443C225.488 322.68 225.969 320.518 226.464 318.289" stroke="black" stroke-width="2" stroke-linecap="round"/>
<path d="M241.757 211.234C241.517 216.762 241.277 222.289 240.252 230.064C239.227 237.838 237.424 247.691 233.071 265.865C228.718 284.039 221.868 310.235 218.58 323.009C215.292 335.782 215.773 334.341 216.268 332.855" stroke="black" stroke-width="2" stroke-linecap="round"/>
<path d="M294.373 197.031C295.094 202.559 295.346 208.531 291.739 225.04C288.787 238.554 281.403 261.978 276.793 280.9C272.183 299.822 270.02 313.401 268.546 321.477C266.35 331.717 265.607 335.147 266.268 334.685C266.929 333.02 268.251 328.454 269.612 323.75" stroke="black" stroke-width="2" stroke-linecap="round"/>
<path d="M295.103 204.68C294.142 209.486 293.181 214.293 289.802 227.824C286.422 241.355 280.655 263.465 277.443 276.958C274.231 290.451 273.751 294.657 272.782 299.527C270.723 309.881 268.525 317.9 267.679 322.985C266.825 328.114 265.853 331.751 265.67 333.81C265.609 334.788 265.609 335.629 266.63 332.578C267.651 329.526 269.694 322.557 271.799 315.376" stroke="black" stroke-width="2" stroke-linecap="round"/>
<path d="M292.92 201.402C296.554 201.402 306.429 200.201 320.55 199.099C328.376 198.489 334.417 198.365 337.998 199.456C339.715 199.979 341.222 200.186 342.854 201.271C348.687 205.151 350.438 212.297 355.291 218.012C356.697 219.669 357.608 221.419 358.459 224.139C359.593 227.769 356.421 234.855 351.884 244.119C349.591 248.8 346.506 253.022 341.596 258.555C336.685 264.088 329.836 270.697 324.505 275.544C319.174 280.39 315.569 283.274 305 294.133C294.431 304.991 277.007 323.737 268.873 332.612C260.738 341.488 262.42 339.926 264.128 338.52C265.836 337.115 267.518 335.913 269.251 334.675" stroke="black" stroke-width="2" stroke-linecap="round"/>
<path d="M292.918 213.782C302.051 212.34 311.183 210.898 318.592 210.156C331.365 208.875 339.983 210.134 345.195 211.286C352.909 212.992 360.509 214.868 363.127 216.807C365.056 218.235 364.893 222.98 365.197 227.827C365.44 231.705 363.695 237.771 361.091 245.227C359.976 248.42 358.608 250.159 348.676 259.019C338.744 267.878 320.119 283.74 305.658 296.838C291.196 309.935 281.463 319.789 275.908 325.706C270.353 331.623 269.272 333.305 268.714 333.812C268.157 333.597 268.518 331.412 269.424 328.506C269.971 327.042 270.692 325.6 271.434 324.115" stroke="black" stroke-width="2" stroke-linecap="round"/>
<path d="M287.821 211.961C288.062 212.442 291.07 213.891 297.061 216.012C300.117 217.093 303.414 217.532 315.119 217.661C326.824 217.791 346.891 217.43 357.469 217.665C368.047 217.9 368.528 218.741 368.776 220.737C369.407 225.823 368.783 230.998 367.698 235.834C366.136 242.795 362.603 249.197 357.657 256.267C354.377 260.954 348.144 266.821 338.081 275.746C328.018 284.671 313.959 296.207 304.193 305.033C294.427 313.86 289.38 319.628 285.759 323.5C280.282 329.357 275.466 334.157 271.403 339.131C269.451 341.52 267.445 344.72 265.32 348.547C264.637 349.611 264.757 348.89 264.999 348.278C265.242 347.666 265.602 347.185 265.973 346.69" stroke="black" stroke-width="2" stroke-linecap="round"/>
<path d="M252.865 173C252.505 175.043 252.144 177.086 247.212 202.471C242.28 227.857 232.787 276.523 227.716 302.134C222.646 327.746 222.285 328.827 222.1 329.865C221.358 334.012 221.186 337.938 220.703 341.519C220.101 343.276 219.729 345.224 219.549 346.562C219.369 346.819 219.008 346.218 218.637 345.599" stroke="black" stroke-width="2" stroke-linecap="round"/>
<path d="M260.511 177.004C260.511 179.167 259.43 187.01 256.169 202.613C254.3 211.558 250.745 222.302 243.306 251.546C235.867 280.789 224.331 328.134 218.388 353.244C212.446 378.355 212.446 379.797 212.81 379.826" stroke="black" stroke-width="2" stroke-linecap="round"/>
<path d="M405.802 194.461C400.955 205.232 396.108 216.002 387.418 238.336C378.728 260.669 366.342 294.237 359.692 312.069C353.042 329.901 352.503 330.978 352.226 332.071C351.948 333.165 351.948 334.242 354.282 333.809C361.561 332.46 367.707 328.47 376.079 325.674C394.296 319.59 407.967 317.405 410.586 315.602C414.103 312.363 416.676 309.61 417.582 307.715C417.949 306.537 418.129 304.921 418.313 301.625" stroke="black" stroke-width="2" stroke-linecap="round"/>
<path d="M398.728 198.812C396.933 204.018 395.138 209.224 393.046 215.586C390.955 221.948 388.621 229.308 381.495 245.217C374.369 261.125 362.521 285.359 353.815 301.883C345.108 318.406 339.903 326.484 336.144 333.069C329.763 344.247 328.011 350.572 328.101 352.742C328.146 353.838 328.37 354.913 329.001 355.198C330.574 355.91 335.409 351.159 344.619 343.84C350.059 339.516 357.778 334.905 367.586 330.433C377.393 325.962 389.241 322.013 403.423 318.722C417.604 315.431 433.761 312.917 443.52 310.815C456.151 307.097 460.007 304.714 461.637 303.088C462.368 302.179 462.907 301.102 463.462 298.361" stroke="black" stroke-width="2" stroke-linecap="round"/>
<path d="M406.344 207.516C401.857 213.619 397.369 219.723 389.672 232.291C381.974 244.86 371.204 263.709 360.898 285.266C350.592 306.824 341.078 330.52 336.087 343.535C331.096 356.549 330.916 358.165 330.644 359.446C330.372 360.727 330.013 361.625 331.444 360.741C332.875 359.857 336.106 357.164 351.324 351.379C366.542 345.594 393.648 336.798 408.958 331.997C431.172 325.564 435.523 322.676 442.13 316.967C443.689 315.773 444.586 315.234 445.511 314.679" stroke="black" stroke-width="2" stroke-linecap="round"/>
<path d="M514.597 210.234C513.34 212.209 512.084 214.184 504.076 227.857C496.069 241.529 481.349 266.841 471.701 284.637C462.054 302.433 457.925 311.947 455.26 318.823C449.021 334.916 449.504 339.511 448.691 340.512C448.397 340.873 447.698 339.897 447.421 338.54C447.144 337.183 447.144 335.208 448.221 332.306C449.298 329.404 451.452 325.634 453.671 321.75" stroke="black" stroke-width="2" stroke-linecap="round"/>
<path d="M510.789 227.099C515.456 225.663 526.298 221.692 539.71 216.347C545.941 213.336 548.313 211.693 550.393 210.157C551.397 209.338 552.295 208.44 553.219 207.516" stroke="black" stroke-width="2" stroke-linecap="round"/>
<path d="M476.52 284.214C476.879 284.214 484.962 281.342 500.699 276.272C508.448 273.775 516.078 272.638 530.194 271.808C544.31 270.979 564.775 270.799 575.586 270.258C586.398 269.717 586.936 268.819 587.491 267.895" stroke="black" stroke-width="2" stroke-linecap="round"/>
<path d="M449.863 332.087C449.145 332.087 454.879 329.574 474.359 324.151C487.547 320.479 508.2 318.009 521.435 315.537C540.174 312.036 550.809 307.63 559.325 303.917C562.636 302.359 563.892 301.461 564.988 300.46C566.084 299.459 566.982 298.382 568.451 295.641" stroke="black" stroke-width="2" stroke-linecap="round"/>
<path d="M484.676 226.009C495.088 226.188 505.499 226.368 520.736 225.742C535.973 225.117 555.719 223.681 567.597 222.582C582.928 221.163 587.477 219.127 589.558 217.139C590.561 216.048 591.459 214.792 592.28 213.696C593.102 212.6 593.82 211.702 594.559 210.777" stroke="black" stroke-width="2" stroke-linecap="round"/>
<path d="M505.891 218.939C516.661 217.862 527.432 216.785 539.533 216.14C551.634 215.496 564.738 215.316 573.553 214.775C582.369 214.234 586.497 213.336 589.253 212.335C592.008 211.334 593.264 210.257 594.559 207.516" stroke="black" stroke-width="2" stroke-linecap="round"/>
<path d="M495.012 229.816C496.627 229.457 498.243 229.098 512.987 227.208C527.732 225.318 555.556 221.907 570.429 219.97C585.301 218.034 586.378 217.675 587.472 217.22C588.565 216.766 589.642 216.228 592.928 215.129" stroke="black" stroke-width="2" stroke-linecap="round"/>
<path d="M511.332 216.763C514.025 217.122 516.717 217.481 533.991 216.41C551.265 215.338 583.039 212.825 600.664 211.261C618.289 209.697 620.802 209.158 623.392 207.516" stroke="black" stroke-width="2" stroke-linecap="round"/>
<path d="M478.148 277.689C486.765 276.612 495.382 275.535 513.643 273.813C531.904 272.092 559.549 269.758 574.329 268.287C589.109 266.815 590.186 266.277 591.84 264.09" stroke="black" stroke-width="2" stroke-linecap="round"/>
<path d="M487.941 274.426C492.968 273.349 497.994 272.272 512.88 270.101C527.766 267.931 552.359 264.699 565.657 262.766C578.954 260.832 580.211 260.293 582.594 259.738" stroke="black" stroke-width="2" stroke-linecap="round"/>
<path d="M458.566 274.422C459.823 274.422 461.08 274.422 476.447 275.589C491.814 276.756 521.254 279.09 540.28 279.933C566.999 281.117 576.593 278.6 579.221 276.974C580.377 276.258 580.592 274.988 580.687 273.895C580.782 272.801 580.603 271.724 580.061 270.99C579.52 270.256 578.622 269.897 577.801 269.981C576.98 270.065 576.262 270.604 575.522 271.159" stroke="black" stroke-width="2" stroke-linecap="round"/>
<path d="M456.934 334.804C458.19 334.266 459.447 333.727 467.095 330.488C474.743 327.248 488.745 321.324 506.64 315.49C524.534 309.656 545.896 304.091 557.529 300.955C569.162 297.819 570.418 297.281 573.345 295.094" stroke="black" stroke-width="2" stroke-linecap="round"/>
<path d="M453.672 336.437C460.134 335.899 466.597 335.36 475.67 333.377C484.744 331.395 496.233 327.984 503.946 325.958C511.66 323.931 515.25 323.393 522.306 321.5C529.361 319.607 539.773 316.375 547.291 313.723C559.266 309.499 565.171 305.806 567.799 303.453C569.169 301.459 569.719 299.458 569.901 297.018C569.904 295.655 569.724 294.04 569.539 292.375" stroke="black" stroke-width="2" stroke-linecap="round"/>
<path d="M497.188 218.938C494.316 221.451 491.221 227.054 480.156 250.276C471.062 269.363 453.474 302.58 443.968 321.396C434.462 340.212 433.205 343.443 433.276 341.787C433.347 340.13 434.783 333.488 436.263 326.645" stroke="black" stroke-width="2" stroke-linecap="round"/>
<path d="M507.523 211.867C506.446 214.201 505.369 216.535 501.763 224.558C498.156 232.582 492.053 246.225 484.421 261.78C476.789 277.335 467.813 294.389 460.676 309.367C453.539 324.346 448.513 336.732 442.246 348.95" stroke="black" stroke-width="2" stroke-linecap="round"/>
<path d="M123.762 351.783C126.591 351.43 129.421 351.076 167.487 351.689C205.552 352.303 278.769 353.895 324.71 355.776C370.651 357.657 387.098 359.779 420.506 360.519C453.915 361.258 503.787 360.551 537.172 359.744C570.556 358.938 585.942 358.053 594.664 357.686C603.386 357.319 604.978 357.496 606.328 357.764C607.679 358.032 608.74 358.386 609.833 359.286" stroke="black" stroke-width="2" stroke-linecap="round"/>
<path d="M110.898 345.352C116.558 345.705 122.217 346.059 209.136 351.989C296.056 357.919 464.064 369.414 551.409 375.071C638.755 380.727 640.346 380.196 641.52 379.658C643.401 378.589 645.014 377.512 645.735 375.381C645.572 373.782 644.334 371.129 643.058 368.396" stroke="black" stroke-width="2" stroke-linecap="round"/>
<path d="M90 348.57C134.743 350.339 179.486 352.107 223.316 353.372C267.145 354.637 308.705 355.344 366.988 357.477C425.271 359.61 499.018 363.147 538.335 365.234C577.652 367.322 580.305 367.852 583.705 368.214C596.359 369.56 603.178 367.863 609.724 366.62C615 364.117 619.287 361.979 622.771 360.454C623.757 360.184 624.818 360.007 626.447 358.753" stroke="black" stroke-width="2" stroke-linecap="round"/>
</svg>
