<svg width="736" height="552" viewBox="0 0 736 552" fill="none" xmlns="http://www.w3.org/2000/svg">
<rect width="736" height="552" fill="white"/>
<path d="M195 343.138C196.657 336.233 198.314 329.328 203.864 314.999C209.413 300.67 218.804 279.126 226.541 257.67C234.279 236.214 240.08 215.499 243.758 203.308C248.394 187.945 251.069 183.016 252.463 181.053C252.79 180.592 253.304 182.957 253.446 195.139C253.588 207.322 253.588 229.694 252.898 252.405C252.207 275.117 250.826 297.489 250.667 308.462C250.508 319.434 251.613 318.33 261.297 302.984C270.981 287.638 289.21 258.084 299.982 239.407C317.19 203.396 319.701 195.286 321.371 191.951C322.212 189.996 323.041 187.51 325.568 182.438" stroke="black" stroke-width="2" stroke-linecap="round"/>
<path d="M290.417 288.734C308.194 289.864 333.839 282.088 344.933 274.53C348.323 272.221 348.997 267.274 349.838 263.097C350.226 261.169 349.022 259.473 345.971 259.172C337.674 258.352 323.427 265.257 307.964 272.777C288.765 282.114 276.255 298.125 270.618 311.286C269.28 314.411 269.777 318.781 270.739 322.158C272.567 328.569 278.398 331.687 283.817 333.361C302.067 331.997 317.183 327.243 320.247 325.573C321.653 324.732 322.758 323.903 323.059 320.539" stroke="black" stroke-width="2" stroke-linecap="round"/>
<path d="M354.027 269.484C354.58 272.255 355.701 301.038 357.225 317.87C357.368 319.457 359.853 320.239 361.535 320.67C368.139 322.362 387.624 301.172 399.345 287.643C400.584 286.213 401.986 285.404 402.697 287.325C407.551 300.429 405.903 311.283 410.783 321.9C411.763 324.034 413.151 324.708 414.963 324.582C430.299 323.52 442.161 297.992 446.777 285.571C448.589 281.236 451.1 277.318 454.301 273.832C455.845 272.556 457.226 272.28 458.649 271.995" stroke="black" stroke-width="2" stroke-linecap="round"/>
<path d="M512.216 207.547C511.664 207.547 502.817 224.395 488.325 254.895C477.492 277.693 475.121 295.086 473.447 307.335C471.936 318.391 472.326 325.267 472.317 325.15C471.273 310.577 486.22 299.949 496.97 286.135C505.717 274.896 521.607 269.517 531.441 269.609C536.247 269.654 537.317 276.999 538.71 281.167C540.577 286.749 539.56 292.341 538.589 296.375C536.148 306.517 517.355 318.781 493.489 330.959C475.909 339.929 462.567 339.797 461.859 337.575C462.257 336.182 464.19 334.248 468.639 331.733C473.087 329.218 479.992 326.18 487.107 323.049" stroke="black" stroke-width="2" stroke-linecap="round"/>
<path d="M577.501 265.301C576.396 270.272 571.96 286.367 565.963 307.702C563.557 317.16 563.273 320.248 562.858 323.169C562.444 324.709 561.615 326.367 560.762 328.911" stroke="black" stroke-width="2" stroke-linecap="round"/>
<path d="M588.381 302.964C595.88 301.298 623.601 288.568 639.968 275.381C648.056 268.865 645.848 261.132 646.132 258.207C646.258 256.917 644.76 256.11 641.843 256.235C634.139 256.567 616.135 265.785 592.319 280.119C572.74 291.902 565.515 307.09 563.979 316.707C563.373 320.5 563.824 322.181 564.519 323.863C565.967 327.369 569.942 330.291 575.78 332.798C582.898 335.854 593.897 335.606 609.046 334.363C629.17 332.712 642.483 326.968 646.245 324.604C647.938 323.54 648.626 321.963 648.639 320.423C648.652 318.883 647.823 317.226 646.153 316.51C644.483 315.795 641.998 316.071 639.437 316.355" stroke="black" stroke-width="2" stroke-linecap="round"/>
<path d="M116.863 228.672C109.682 252.425 105.154 269.633 102.241 281.724C96.8424 297.957 90.3893 314.253 85.3717 325.405C83.3922 329.653 82.5636 331.034 82.5469 329.946" stroke="black" stroke-width="2" stroke-linecap="round"/>
<path d="M164.567 227C163.738 230.314 162.91 233.629 158.202 247.075C153.494 260.521 144.932 283.998 139.692 299.683C134.453 315.368 132.795 322.549 131.666 327.077C130.536 331.605 129.983 333.262 129.414 332.459" stroke="black" stroke-width="2" stroke-linecap="round"/>
<path d="M64.9688 253.781C72.15 251.571 79.3312 249.362 100.017 246.98C120.703 244.599 154.676 242.113 171.21 241.661C187.745 241.209 185.811 242.867 183.819 244.574" stroke="black" stroke-width="2" stroke-linecap="round"/>
<path d="M34 298.979C35.6572 297.875 51.4258 293.991 84.9341 287.588C103.447 284.051 125.348 281.738 144.874 277.553C181.426 269.719 199.704 261.876 203.044 260.353C204.726 259.106 206.384 256.896 208.066 254.929C209.748 252.963 211.405 251.305 214.787 246.25" stroke="black" stroke-width="2" stroke-linecap="round"/>
</svg>
